# xmcd
# Copyright (C) 1995-1998 Ti Kan
#
# Track frame offsets:
#       150
#       13601
#       27953
#       42821
#       57298
#       71761
#       85467
#       99380
#       113032
#       127949
#       141114
#       154610
#
# Disc length: 2269 seconds
#
# Revision: 0
# Processed by: cddbd v1.5.2PL0 Copyright (c) Steve Scherf et al.
# Submitted via: CD-Transfer v1.0
#
DISCID=9608db0c
DTITLE=Südtiroler Spitzbuam - 
DYEAR=08
DGENRE=
TTITLE0=Ich Bin Kein Märchenprinz
TTITLE1=Happy Herzgefühl (8)
TTITLE2=Roter Marmor (8)
TTITLE3=Mama Maria (8)
TTITLE4=Die Farben Des Lebens (8)
TTITLE5=1000 Rote Rosen (8)
TTITLE6=Wir Lieben Die Freiheit (8)
TTITLE7=Heyo Heyo (8)
TTITLE8=Unterm Tiroler Himmel (8)
TTITLE9=Die Augen Der Kinder (8)
TTITLE10=Korsika (8)
TTITLE11=Sierra Nevada (8)
EXTD=
EXTT0=
EXTT1=
EXTT2=
EXTT3=
EXTT4=
EXTT5=
EXTT6=
EXTT7=
EXTT8=
EXTT9=
EXTT10=
EXTT11=
PLAYORDER=
